# xmcd
#
# Track frame offsets: 
#        182
#        13335
#        32742
#        44667
#        55380
#        73052
#        90190
#        100732
#        115587
#        131090
#        145157
#        163327
#        179270
#
# Disc length: 2573 seconds
#
# Revision: 2
# Processed by: cddbd v1.5.2PL0 Copyright (c) Steve Scherf et al.
# Submitted via: ExactAudioCopy v1.1
#
DISCID=b60a0b0d
DTITLE=Asleep At The Wheel - Pasture Prime
DYEAR=1985
DGENRE=Country
TTITLE0=Across The Valley From The Alamo
TTITLE1=Switchin' In The Kitchen
TTITLE2=Write Your Own Song
TTITLE3=Cotton-Eyed Joe
TTITLE4=Baby
TTITLE5=Shorty
TTITLE6=That Chick's Too Young To Fry
TTITLE7=Big Beaver
TTITLE8=This Is The Way We Make A Broken Heart
TTITLE9=Deep Water
TTITLE10=The Natural Thing To Do
TTITLE11=Liar's Moon
TTITLE12=That's Your Red Wagon
EXTD=
EXTT0=
EXTT1=
EXTT2=
EXTT3=
EXTT4=
EXTT5=
EXTT6=
EXTT7=
EXTT8=
EXTT9=
EXTT10=
EXTT11=
EXTT12=
PLAYORDER=
